<svg width="45" height="52" viewBox="0 0 45 52" fill="none" xmlns="http://www.w3.org/2000/svg">
<path d="M29.301 0.00547791C30.5719 0.106352 30.6874 1.317 30.803 2.32579C30.803 2.93104 30.688 3.63751 30.5725 4.24278C30.3687 4.99431 30.1655 5.74614 29.9622 6.49767L42.1624 8.82872C43.1922 9.02549 43.962 9.47127 44.4709 10.1647C44.9797 10.858 45.1211 11.6543 44.8958 12.5533L42.385 22.5729L37.9709 21.7301L40.3997 12.0406L29.2395 9.90782L29.2327 9.19884C25.8838 21.6111 22.5922 34.0229 19.2395 46.4352L31.3 48.3492L35.0325 33.4566L29.7678 32.4508L30.595 29.1471L40.2737 30.9967L35.6311 49.5231C35.4057 50.4221 34.8958 51.0933 34.1018 51.5377C33.3078 51.9821 32.3961 52.1064 31.3665 51.9098L18.427 49.4371C18.3539 49.7068 18.2824 49.977 18.2092 50.2467C18.0937 50.5492 18.0932 50.7508 17.9778 51.0533C17.7467 51.4569 17.5158 51.9615 16.8225 51.9615C16.1296 51.9615 15.7831 51.5583 15.552 51.1549C15.0899 50.6505 14.9742 50.0449 14.8586 49.2379C15.3208 47.2203 15.8982 45.1018 16.4758 42.8824C17.8715 37.7414 19.2667 32.5997 20.6624 27.4586C14.1072 20.9298 7.66601 14.302 1.22485 7.77403C0.531664 7.16878 -0.624075 6.36158 0.415283 5.45372C1.33963 4.64664 2.49582 5.25203 3.42017 5.75645C3.99773 6.05914 4.5753 6.56368 5.03735 7.06798C10.5628 12.6965 16.0881 18.3252 21.6135 23.9537C23.5981 16.6435 25.5841 9.33325 27.5686 2.02306C27.7995 1.21599 27.7996 -0.0951732 29.301 0.00547791Z" fill="black"/>
</svg>
